# xmcd
#
# Track frame offsets:
#	150
#	16313
#	29410
#	45444
#	60010
#	74160
#	88491
#	101357
#	117916
#	135030
#	151940
#	165659
#	181589
#	193700
#	207547
#	224353
#	237841
#	249767
#	264260
#	278466
#	292660
#
# Disc length: 4070 seconds
#
# Revision: 3
# Processed by: cddbd v1.5.2PL0 Copyright (c) Steve Scherf et al.
# Submitted via: audiograbber 1.83.01
#
DISCID=120fe415
DTITLE=John Williamson - The Platinum Collection [Disc 3]
DYEAR=2006
DGENRE=Country
TTITLE0=Campfire On The Road
TTITLE1=A Thousand Feet (with Warren H. Williams)
TTITLE2=Three Sons
TTITLE3=Purple Roses
TTITLE4=This Ancient Land: Corroboree 2000 (with Jimmy Little)
TTITLE5=The Land Of The Truly Free
TTITLE6=The Baggy Green (with Steve Waugh, Gavin Robertson and Boys of the Bankst
TTITLE6=own District Cricket Association)
TTITLE7=A Number On My Back (The Wallaby Anthem)
TTITLE8=Waltzing Matilda 2000 (Live)
TTITLE9=Sing You The Outback
TTITLE10=Cape York Peninsula
TTITLE11=Salisbury Street
TTITLE12=Buried In Her Bedclothes
TTITLE13=Raining On The Plains (with Sara Storer)
TTITLE14=Old Farts In Caravan Parks (Live)
TTITLE15=Glory To Australia (with Pixie Jenkins and Warren H. Williams) (Live)
TTITLE16=Mates On The Road (with Pixie Jenkins and Warren H. Williams) (Live)
TTITLE17=Chandelier Of Stars
TTITLE18=Desert Child (with Warren H. Williams)
TTITLE19=Flower On The Water
TTITLE20=We Love This Country
EXTD=
EXTT0=
EXTT1=
EXTT2=
EXTT3=
EXTT4=
EXTT5=
EXTT6=
EXTT7=
EXTT8=
EXTT9=
EXTT10=
EXTT11=
EXTT12=
EXTT13=
EXTT14=
EXTT15=
EXTT16=
EXTT17=
EXTT18=
EXTT19=
EXTT20=
PLAYORDER=
